<svg xmlns="http://www.w3.org/2000/svg" xmlns:xlink="http://www.w3.org/1999/xlink" viewBox="0 0 998.5 999"><defs><style>.cls-1{fill:url(#Dégradé_sans_nom_32);}.cls-2{fill:url(#Dégradé_sans_nom_32-2);}.cls-3{fill:url(#Dégradé_sans_nom_32-3);}.cls-4{fill:url(#Dégradé_sans_nom_32-4);}</style><linearGradient id="Dégradé_sans_nom_32" x1="325.27" y1="245.53" x2="403.71" y2="109.66" gradientUnits="userSpaceOnUse"><stop offset="0" stop-color="#0086aa"/><stop offset="0.19" stop-color="#1e68af"/><stop offset="0.57" stop-color="#5730b7"/><stop offset="0.85" stop-color="#7b0dbd"/><stop offset="1" stop-color="#8800bf"/></linearGradient><linearGradient id="Dégradé_sans_nom_32-2" x1="308.86" y1="771.71" x2="633.17" y2="209.99" xlink:href="#Dégradé_sans_nom_32"/><linearGradient id="Dégradé_sans_nom_32-3" x1="322.08" y1="803.33" x2="702.03" y2="145.25" xlink:href="#Dégradé_sans_nom_32"/><linearGradient id="Dégradé_sans_nom_32-4" x1="249.96" y1="932.58" x2="750.04" y2="66.42" xlink:href="#Dégradé_sans_nom_32"/></defs><title>Fichier 1</title><g id="Calque_2" data-name="Calque 2"><g id="Calque_1-2" data-name="Calque 1"><path class="cls-1" d="M411.67,118.18,305.59,224.27a4.58,4.58,0,0,0,0,6.48l7.66,7.66a4.58,4.58,0,0,0,6.48,0L418.16,140a4.55,4.55,0,0,0,1.34-3.24V121.43A4.59,4.59,0,0,0,411.67,118.18Z"/><path class="cls-2" d="M447,510.14V102.5H428v738h18.5v.38a165.49,165.49,0,0,0,.5-330.74Zm0,314.14V526.72a148.94,148.94,0,0,1,0,297.56Z"/><path class="cls-3" d="M625.5,102h-165a6,6,0,0,0-6,6V502.34c88,3.87,158.27,80.13,158.27,173.66,0,92-61.19,171.33-179.24,171.08a6,6,0,0,0-6,6v7.66a6,6,0,0,0,6.32,6c139.44-7.15,197.68-88,197.68-190.73,0-95.34-65.7-174.52-152.08-190.27a6,6,0,0,1-4.92-5.89V128a6,6,0,0,1,6-6h145a6,6,0,0,0,6-6v-8A6,6,0,0,0,625.5,102Z"/><path class="cls-4" d="M998.5,460.52C979.18,209.94,775.13,11.11,522.33,0H477.67C211.89,11.68,0,230.84,0,499.5S211.89,987.32,477.67,999h44.66c252.8-11.11,456.85-209.94,476.17-460.52ZM499,949.5C250.47,949.5,49,748,49,499.5s201.47-450,450-450S949,251,949,499.5,747.53,949.5,499,949.5Z"/></g></g></svg>